<svg width="466" height="512" viewBox="0 0 466 512" fill="none" xmlns="http://www.w3.org/2000/svg">
<path d="M256.135 512C334.891 512 407.117 476.196 454.979 417.225C483.249 382.394 452.421 331.503 408.73 339.824C326.382 355.507 250.458 292.556 250.458 209.032C250.458 160.608 276.518 116.74 317.892 93.196C356.637 71.146 346.891 12.408 302.87 4.277C287.454 1.43415 271.811 0.00255631 256.135 0C114.775 0 0.13501 114.575 0.13501 256C0.13501 397.36 114.711 512 256.135 512ZM256.135 48C269.12 48 281.824 49.201 294.151 51.478C239.391 82.641 202.458 141.52 202.458 209.032C202.458 322.88 306.099 408.232 417.71 386.976C379.574 433.964 321.366 464 256.135 464C141.26 464 48.135 370.875 48.135 256C48.135 141.125 141.26 48 256.135 48Z" fill="white"/>
</svg>
